<mxfile host="65bd71144e">
    <diagram id="AVJDm6md6waOalohnpmS" name="Page-1">
        <mxGraphModel dx="2310" dy="1298" grid="1" gridSize="10" guides="1" tooltips="1" connect="1" arrows="1" fold="1" page="1" pageScale="1" pageWidth="10000" pageHeight="10000" math="0" shadow="0">
            <root>
                <mxCell id="0"/>
                <mxCell id="1" parent="0"/>
                <mxCell id="472" style="edgeStyle=none;html=1;exitX=0;exitY=0.5;exitDx=0;exitDy=0;entryX=1;entryY=0.5;entryDx=0;entryDy=0;startArrow=none;startFill=0;" parent="1" source="3" target="430" edge="1">
                    <mxGeometry relative="1" as="geometry"/>
                </mxCell>
                <mxCell id="3" value="&lt;font style=&quot;font-size: 24px;&quot;&gt;Google PLaces API&lt;br&gt;[1]&lt;br&gt;&lt;/font&gt;" style="ellipse;whiteSpace=wrap;html=1;fillColor=#6a00ff;fontColor=#ffffff;strokeColor=#3700CC;" parent="1" vertex="1">
                    <mxGeometry x="2830" y="90" width="220" height="220" as="geometry"/>
                </mxCell>
                <mxCell id="507" style="edgeStyle=none;html=1;fontSize=24;" parent="1" source="4" target="503" edge="1">
                    <mxGeometry relative="1" as="geometry"/>
                </mxCell>
                <mxCell id="4" value="&lt;font style=&quot;font-size: 24px;&quot;&gt;Wifi Access Points&lt;br&gt;[1]&lt;br&gt;&lt;/font&gt;" style="ellipse;whiteSpace=wrap;html=1;fillColor=#e51400;fontColor=#ffffff;strokeColor=#B20000;" parent="1" vertex="1">
                    <mxGeometry x="2830" y="365" width="220" height="220" as="geometry"/>
                </mxCell>
                <mxCell id="442" style="edgeStyle=none;html=1;exitX=0;exitY=0.5;exitDx=0;exitDy=0;entryX=1;entryY=0.5;entryDx=0;entryDy=0;" parent="1" source="5" target="437" edge="1">
                    <mxGeometry relative="1" as="geometry">
                        <Array as="points">
                            <mxPoint x="2680" y="820"/>
                        </Array>
                        <mxPoint x="2500" y="880" as="sourcePoint"/>
                    </mxGeometry>
                </mxCell>
                <mxCell id="5" value="&lt;font style=&quot;font-size: 24px;&quot;&gt;Environmental/&lt;br&gt;LoRa&lt;br&gt;&amp;nbsp;Sensors&lt;br&gt;[1]&lt;br&gt;&lt;/font&gt;" style="ellipse;whiteSpace=wrap;html=1;fillColor=#e51400;fontColor=#ffffff;strokeColor=#B20000;" parent="1" vertex="1">
                    <mxGeometry x="2830" y="710" width="220" height="220" as="geometry"/>
                </mxCell>
                <mxCell id="440" style="edgeStyle=none;html=1;exitX=0;exitY=0.5;exitDx=0;exitDy=0;entryX=1;entryY=1;entryDx=0;entryDy=0;" parent="1" source="6" target="434" edge="1">
                    <mxGeometry relative="1" as="geometry">
                        <mxPoint x="2250" y="1140" as="targetPoint"/>
                    </mxGeometry>
                </mxCell>
                <mxCell id="6" value="&lt;font style=&quot;font-size: 24px;&quot;&gt;Bluetooth Sensors&lt;br&gt;[1]&lt;br&gt;&lt;/font&gt;" style="ellipse;whiteSpace=wrap;html=1;fillColor=#647687;fontColor=#ffffff;strokeColor=#314354;" parent="1" vertex="1">
                    <mxGeometry x="2830" y="1015" width="220" height="220" as="geometry"/>
                </mxCell>
                <mxCell id="444" style="edgeStyle=none;html=1;exitX=0;exitY=0.5;exitDx=0;exitDy=0;entryX=1;entryY=0.5;entryDx=0;entryDy=0;" parent="1" source="7" target="509" edge="1">
                    <mxGeometry relative="1" as="geometry">
                        <mxPoint x="2250" y="1360" as="targetPoint"/>
                    </mxGeometry>
                </mxCell>
                <mxCell id="7" value="&lt;font style=&quot;font-size: 24px;&quot;&gt;Cameras&lt;br&gt;[1]&lt;br&gt;&lt;/font&gt;" style="ellipse;whiteSpace=wrap;html=1;fillColor=#e51400;fontColor=#ffffff;strokeColor=#B20000;" parent="1" vertex="1">
                    <mxGeometry x="2820" y="1315" width="220" height="220" as="geometry"/>
                </mxCell>
                <mxCell id="429" value="&lt;font style=&quot;font-size: 24px;&quot;&gt;CItizens&lt;br&gt;App&lt;br&gt;[5]&lt;br&gt;&lt;/font&gt;" style="ellipse;whiteSpace=wrap;html=1;fillColor=#6a00ff;fontColor=#ffffff;strokeColor=#3700CC;" parent="1" vertex="1">
                    <mxGeometry x="320" y="385" width="220" height="220" as="geometry"/>
                </mxCell>
                <mxCell id="451" style="edgeStyle=none;html=1;exitX=0;exitY=0.5;exitDx=0;exitDy=0;entryX=0.5;entryY=0;entryDx=0;entryDy=0;startArrow=none;startFill=0;" parent="1" source="430" target="447" edge="1">
                    <mxGeometry relative="1" as="geometry">
                        <mxPoint x="2129.9999999999995" y="200" as="sourcePoint"/>
                        <Array as="points">
                            <mxPoint x="1640" y="200"/>
                        </Array>
                    </mxGeometry>
                </mxCell>
                <mxCell id="430" value="&lt;font style=&quot;font-size: 24px;&quot;&gt;data fetching script&lt;br&gt;[2]&lt;br&gt;&lt;/font&gt;" style="rhombus;whiteSpace=wrap;html=1;fillColor=#6a00ff;fontColor=#ffffff;strokeColor=#3700CC;" parent="1" vertex="1">
                    <mxGeometry x="2010" y="80" width="240" height="240" as="geometry"/>
                </mxCell>
                <mxCell id="452" style="edgeStyle=none;html=1;exitX=0;exitY=0.5;exitDx=0;exitDy=0;entryX=1;entryY=0;entryDx=0;entryDy=0;startArrow=none;startFill=0;" parent="1" source="502" target="447" edge="1">
                    <mxGeometry relative="1" as="geometry"/>
                </mxCell>
                <mxCell id="436" style="edgeStyle=none;html=1;exitX=0;exitY=0.5;exitDx=0;exitDy=0;entryX=1;entryY=0.5;entryDx=0;entryDy=0;" parent="1" source="503" target="502" edge="1">
                    <mxGeometry relative="1" as="geometry">
                        <mxPoint x="2360" y="470" as="sourcePoint"/>
                        <mxPoint x="2260" y="470" as="targetPoint"/>
                    </mxGeometry>
                </mxCell>
                <mxCell id="453" style="edgeStyle=none;html=1;exitX=0;exitY=0.5;exitDx=0;exitDy=0;entryX=1;entryY=0.5;entryDx=0;entryDy=0;startArrow=none;startFill=0;" parent="1" source="434" target="447" edge="1">
                    <mxGeometry relative="1" as="geometry">
                        <Array as="points"/>
                    </mxGeometry>
                </mxCell>
                <mxCell id="434" value="&lt;font style=&quot;font-size: 24px;&quot;&gt;MQTT Broker&lt;br&gt;[2]&lt;br&gt;&lt;/font&gt;" style="rhombus;whiteSpace=wrap;html=1;fillColor=#e51400;fontColor=#ffffff;strokeColor=#B20000;" parent="1" vertex="1">
                    <mxGeometry x="1960" y="800" width="240" height="240" as="geometry"/>
                </mxCell>
                <mxCell id="512" style="edgeStyle=none;html=1;exitX=0;exitY=0.5;exitDx=0;exitDy=0;fontSize=24;" parent="1" source="437" target="510" edge="1">
                    <mxGeometry relative="1" as="geometry"/>
                </mxCell>
                <mxCell id="437" value="&lt;font style=&quot;font-size: 24px;&quot;&gt;Gateway&lt;br&gt;[2]&lt;br&gt;&lt;/font&gt;" style="whiteSpace=wrap;html=1;aspect=fixed;" parent="1" vertex="1">
                    <mxGeometry x="2540" y="735" width="170" height="170" as="geometry"/>
                </mxCell>
                <mxCell id="455" style="edgeStyle=none;html=1;entryX=0.723;entryY=0.961;entryDx=0;entryDy=0;entryPerimeter=0;startArrow=none;startFill=0;exitX=0;exitY=0.5;exitDx=0;exitDy=0;" parent="1" source="509" target="447" edge="1">
                    <mxGeometry relative="1" as="geometry">
                        <mxPoint x="2690" y="1530" as="sourcePoint"/>
                    </mxGeometry>
                </mxCell>
                <mxCell id="450" style="edgeStyle=none;html=1;exitX=0.5;exitY=1;exitDx=0;exitDy=0;startArrow=classic;startFill=1;entryX=0.5;entryY=0;entryDx=0;entryDy=0;entryPerimeter=0;" parent="1" source="447" target="501" edge="1">
                    <mxGeometry relative="1" as="geometry">
                        <mxPoint x="1640" y="930" as="targetPoint"/>
                    </mxGeometry>
                </mxCell>
                <mxCell id="459" style="edgeStyle=none;html=1;exitX=0;exitY=1;exitDx=0;exitDy=0;entryX=0.5;entryY=0;entryDx=0;entryDy=0;startArrow=none;startFill=0;" parent="1" source="447" target="456" edge="1">
                    <mxGeometry relative="1" as="geometry"/>
                </mxCell>
                <mxCell id="465" style="edgeStyle=none;html=1;exitX=0;exitY=0.5;exitDx=0;exitDy=0;entryX=1;entryY=0.5;entryDx=0;entryDy=0;startArrow=none;startFill=0;" parent="1" source="447" target="496" edge="1">
                    <mxGeometry relative="1" as="geometry">
                        <mxPoint x="1355" y="440" as="targetPoint"/>
                    </mxGeometry>
                </mxCell>
                <mxCell id="447" value="&lt;font style=&quot;font-size: 24px;&quot;&gt;Context Broker&lt;br&gt;[2]&lt;br&gt;&lt;/font&gt;" style="ellipse;whiteSpace=wrap;html=1;aspect=fixed;fillColor=#e51400;fontColor=#ffffff;strokeColor=#B20000;gradientDirection=west;gradientColor=#6A00FF;" parent="1" vertex="1">
                    <mxGeometry x="1510" y="420" width="260" height="260" as="geometry"/>
                </mxCell>
                <mxCell id="458" style="edgeStyle=none;html=1;exitX=0.5;exitY=1;exitDx=0;exitDy=0;entryX=0.5;entryY=0;entryDx=0;entryDy=0;entryPerimeter=0;startArrow=none;startFill=0;" parent="1" source="456" target="500" edge="1">
                    <mxGeometry relative="1" as="geometry">
                        <mxPoint x="1480" y="930" as="targetPoint"/>
                    </mxGeometry>
                </mxCell>
                <mxCell id="456" value="&lt;font style=&quot;font-size: 24px;&quot;&gt;Cygnus&lt;/font&gt;" style="whiteSpace=wrap;html=1;aspect=fixed;" parent="1" vertex="1">
                    <mxGeometry x="1430" y="790" width="80" height="80" as="geometry"/>
                </mxCell>
                <mxCell id="462" style="edgeStyle=none;html=1;exitX=0;exitY=0.5;exitDx=0;exitDy=0;exitPerimeter=0;startArrow=none;startFill=0;entryX=1;entryY=0.5;entryDx=0;entryDy=0;" parent="1" source="500" target="461" edge="1">
                    <mxGeometry relative="1" as="geometry">
                        <mxPoint x="1340" y="970" as="targetPoint"/>
                        <mxPoint x="1440" y="995" as="sourcePoint"/>
                    </mxGeometry>
                </mxCell>
                <mxCell id="480" style="edgeStyle=none;html=1;exitX=0;exitY=1;exitDx=0;exitDy=-15;exitPerimeter=0;entryX=1;entryY=0.5;entryDx=0;entryDy=0;startArrow=none;startFill=0;endArrow=classic;endFill=1;" parent="1" target="479" edge="1">
                    <mxGeometry relative="1" as="geometry">
                        <mxPoint x="1125" y="840" as="sourcePoint"/>
                    </mxGeometry>
                </mxCell>
                <mxCell id="463" style="edgeStyle=none;html=1;exitX=0;exitY=0.5;exitDx=0;exitDy=0;entryX=0.5;entryY=1;entryDx=0;entryDy=0;entryPerimeter=0;startArrow=none;startFill=0;" parent="1" source="461" edge="1">
                    <mxGeometry relative="1" as="geometry">
                        <Array as="points">
                            <mxPoint x="1170" y="970"/>
                        </Array>
                        <mxPoint x="1170" y="855" as="targetPoint"/>
                    </mxGeometry>
                </mxCell>
                <mxCell id="461" value="&lt;font style=&quot;font-size: 24px;&quot;&gt;Sync Agent&lt;/font&gt;" style="rhombus;whiteSpace=wrap;html=1;" parent="1" vertex="1">
                    <mxGeometry x="1200" y="930" width="100" height="110" as="geometry"/>
                </mxCell>
                <mxCell id="468" style="edgeStyle=none;html=1;exitX=0.5;exitY=1;exitDx=0;exitDy=0;entryX=0.5;entryY=0;entryDx=0;entryDy=0;entryPerimeter=0;startArrow=classic;startFill=1;" parent="1" source="496" edge="1">
                    <mxGeometry relative="1" as="geometry">
                        <mxPoint x="1170" y="580" as="sourcePoint"/>
                        <mxPoint x="1170" y="725" as="targetPoint"/>
                    </mxGeometry>
                </mxCell>
                <mxCell id="470" style="edgeStyle=none;html=1;exitX=0;exitY=0.5;exitDx=0;exitDy=0;entryX=1;entryY=0.5;entryDx=0;entryDy=0;startArrow=none;startFill=0;" parent="1" source="496" target="429" edge="1">
                    <mxGeometry relative="1" as="geometry">
                        <mxPoint x="985" y="440" as="sourcePoint"/>
                    </mxGeometry>
                </mxCell>
                <mxCell id="476" style="edgeStyle=none;html=1;exitX=0;exitY=0.75;exitDx=0;exitDy=0;entryX=1;entryY=0.5;entryDx=0;entryDy=0;startArrow=none;startFill=0;" parent="1" source="496" target="471" edge="1">
                    <mxGeometry relative="1" as="geometry">
                        <mxPoint x="994.4871794871797" y="506.41025641025635" as="sourcePoint"/>
                    </mxGeometry>
                </mxCell>
                <mxCell id="478" style="edgeStyle=none;html=1;exitX=0.5;exitY=0;exitDx=0;exitDy=0;entryX=0.5;entryY=1;entryDx=0;entryDy=0;entryPerimeter=0;startArrow=none;startFill=0;" parent="1" source="496" target="477" edge="1">
                    <mxGeometry relative="1" as="geometry">
                        <mxPoint x="1170" y="300" as="sourcePoint"/>
                    </mxGeometry>
                </mxCell>
                <mxCell id="467" style="edgeStyle=none;html=1;exitX=1;exitY=0.5;exitDx=0;exitDy=0;entryX=0;entryY=0.5;entryDx=0;entryDy=0;entryPerimeter=0;startArrow=classic;startFill=1;endArrow=none;endFill=0;" parent="1" source="466" edge="1">
                    <mxGeometry relative="1" as="geometry">
                        <Array as="points"/>
                        <mxPoint x="1125" y="790" as="targetPoint"/>
                    </mxGeometry>
                </mxCell>
                <mxCell id="513" style="edgeStyle=none;html=1;exitX=1;exitY=0.75;exitDx=0;exitDy=0;entryX=0;entryY=0;entryDx=0;entryDy=90;entryPerimeter=0;" parent="1" source="466" target="499" edge="1">
                    <mxGeometry relative="1" as="geometry"/>
                </mxCell>
                <mxCell id="466" value="&lt;font style=&quot;font-size: 24px;&quot;&gt;AI Model&lt;br&gt;[4]&lt;br&gt;&lt;/font&gt;" style="shape=hexagon;perimeter=hexagonPerimeter2;whiteSpace=wrap;html=1;fixedSize=1;fillColor=#e51400;fontColor=#ffffff;strokeColor=#B20000;" parent="1" vertex="1">
                    <mxGeometry x="880" y="725" width="180" height="130" as="geometry"/>
                </mxCell>
                <mxCell id="483" style="edgeStyle=none;html=1;exitX=0.5;exitY=1;exitDx=0;exitDy=0;fontSize=24;startArrow=classic;startFill=1;endArrow=none;endFill=0;entryX=0;entryY=0.5;entryDx=0;entryDy=0;" parent="1" source="471" target="509" edge="1">
                    <mxGeometry relative="1" as="geometry">
                        <mxPoint x="2610" y="1360" as="targetPoint"/>
                        <Array as="points">
                            <mxPoint x="1150" y="1180"/>
                        </Array>
                    </mxGeometry>
                </mxCell>
                <mxCell id="471" value="&lt;font style=&quot;font-size: 24px;&quot;&gt;Authorities/&lt;br&gt;Bussiness&lt;br&gt;App&lt;br&gt;[5]&lt;br&gt;&lt;/font&gt;" style="ellipse;whiteSpace=wrap;html=1;fillColor=#6a00ff;fontColor=#ffffff;strokeColor=#3700CC;" parent="1" vertex="1">
                    <mxGeometry x="320" y="670" width="220" height="220" as="geometry"/>
                </mxCell>
                <mxCell id="477" value="&lt;font style=&quot;font-size: 24px;&quot;&gt;SQLite&lt;/font&gt;" style="shape=cylinder3;whiteSpace=wrap;html=1;boundedLbl=1;backgroundOutline=1;size=15;fillColor=#6a00ff;fontColor=#ffffff;strokeColor=#3700CC;" parent="1" vertex="1">
                    <mxGeometry x="1125" y="150" width="95" height="130" as="geometry"/>
                </mxCell>
                <mxCell id="481" style="edgeStyle=none;html=1;entryX=1;entryY=0.5;entryDx=0;entryDy=0;startArrow=none;startFill=0;endArrow=classic;endFill=1;" parent="1" source="479" target="471" edge="1">
                    <mxGeometry relative="1" as="geometry"/>
                </mxCell>
                <mxCell id="482" style="edgeStyle=none;html=1;exitX=0;exitY=0;exitDx=0;exitDy=0;entryX=1;entryY=1;entryDx=0;entryDy=0;startArrow=none;startFill=0;endArrow=classic;endFill=1;" parent="1" source="479" target="429" edge="1">
                    <mxGeometry relative="1" as="geometry"/>
                </mxCell>
                <mxCell id="479" value="&lt;font style=&quot;font-size: 24px;&quot;&gt;Grafana&lt;br&gt;[5]&lt;br&gt;&lt;/font&gt;" style="whiteSpace=wrap;html=1;aspect=fixed;fillColor=#e51400;fontColor=#ffffff;strokeColor=#B20000;gradientColor=#6A00FF;gradientDirection=west;" parent="1" vertex="1">
                    <mxGeometry x="890" y="915" width="80" height="80" as="geometry"/>
                </mxCell>
                <mxCell id="496" value="&lt;font style=&quot;font-size: 24px;&quot;&gt;Back End&lt;br&gt;[3]&lt;br&gt;&lt;/font&gt;" style="rounded=0;whiteSpace=wrap;html=1;fillColor=#e51400;fontColor=#ffffff;strokeColor=#B20000;gradientColor=#6A00FF;gradientDirection=west;" parent="1" vertex="1">
                    <mxGeometry x="995" y="360" width="350" height="270" as="geometry"/>
                </mxCell>
                <mxCell id="490" value="Server" style="rounded=0;whiteSpace=wrap;html=1;fontSize=24;movable=1;resizable=1;rotatable=1;deletable=1;editable=1;connectable=1;" parent="1" vertex="1">
                    <mxGeometry x="995" y="360" width="120" height="60" as="geometry"/>
                </mxCell>
                <mxCell id="491" value="Alerts" style="rounded=0;whiteSpace=wrap;html=1;fontSize=24;movable=1;resizable=1;rotatable=1;deletable=1;editable=1;connectable=1;" parent="1" vertex="1">
                    <mxGeometry x="1225" y="360" width="120" height="60" as="geometry"/>
                </mxCell>
                <mxCell id="497" value="Suggestions" style="rounded=0;whiteSpace=wrap;html=1;fontSize=24;" parent="1" vertex="1">
                    <mxGeometry x="995" y="570" width="145" height="60" as="geometry"/>
                </mxCell>
                <mxCell id="498" value="Insights" style="rounded=0;whiteSpace=wrap;html=1;fontSize=24;" parent="1" vertex="1">
                    <mxGeometry x="1220" y="570" width="120" height="60" as="geometry"/>
                </mxCell>
                <mxCell id="499" value="&lt;font style=&quot;font-size: 24px;&quot;&gt;InfluxDB&lt;br&gt;[3]&lt;br&gt;&lt;/font&gt;" style="shape=cylinder3;whiteSpace=wrap;html=1;boundedLbl=1;backgroundOutline=1;size=15;fillColor=#e51400;fontColor=#ffffff;strokeColor=#B20000;gradientColor=#6A00FF;gradientDirection=west;" parent="1" vertex="1">
                    <mxGeometry x="1122.5" y="730" width="95" height="130" as="geometry"/>
                </mxCell>
                <mxCell id="500" value="&lt;font style=&quot;font-size: 24px;&quot;&gt;SQLite&lt;/font&gt;" style="shape=cylinder3;whiteSpace=wrap;html=1;boundedLbl=1;backgroundOutline=1;size=15;fillColor=none;" parent="1" vertex="1">
                    <mxGeometry x="1422.5" y="920" width="95" height="130" as="geometry"/>
                </mxCell>
                <mxCell id="501" value="&lt;font style=&quot;font-size: 24px;&quot;&gt;MongoDB&lt;/font&gt;" style="shape=cylinder3;whiteSpace=wrap;html=1;boundedLbl=1;backgroundOutline=1;size=15;" parent="1" vertex="1">
                    <mxGeometry x="1592.5" y="915" width="95" height="130" as="geometry"/>
                </mxCell>
                <mxCell id="503" value="&lt;font style=&quot;font-size: 24px;&quot;&gt;WLC&lt;br&gt;[2]&lt;br&gt;&lt;/font&gt;" style="rhombus;whiteSpace=wrap;html=1;" parent="1" vertex="1">
                    <mxGeometry x="2390" y="350" width="240" height="240" as="geometry"/>
                </mxCell>
                <mxCell id="502" value="&lt;font style=&quot;font-size: 24px;&quot;&gt;telemetry script&lt;br&gt;[2]&lt;br&gt;&lt;/font&gt;" style="rhombus;whiteSpace=wrap;html=1;fillColor=#e51400;fontColor=#ffffff;strokeColor=#B20000;" parent="1" vertex="1">
                    <mxGeometry x="2000" y="350" width="240" height="240" as="geometry"/>
                </mxCell>
                <mxCell id="509" value="&lt;span style=&quot;font-size: 24px;&quot;&gt;Image Processing/&lt;/span&gt;&lt;br style=&quot;font-size: 24px;&quot;&gt;&lt;span style=&quot;font-size: 24px;&quot;&gt;Live Feed&lt;/span&gt;&lt;br style=&quot;font-size: 24px;&quot;&gt;&lt;span style=&quot;font-size: 24px;&quot;&gt;&amp;nbsp;Script&lt;br&gt;[2]&lt;br&gt;&lt;/span&gt;" style="rhombus;whiteSpace=wrap;html=1;fillColor=#e51400;fontColor=#ffffff;strokeColor=#B20000;" parent="1" vertex="1">
                    <mxGeometry x="2000" y="1305" width="240" height="240" as="geometry"/>
                </mxCell>
                <mxCell id="511" style="edgeStyle=none;html=1;exitX=0;exitY=0.5;exitDx=0;exitDy=0;entryX=1;entryY=0.5;entryDx=0;entryDy=0;fontSize=24;" parent="1" source="510" target="434" edge="1">
                    <mxGeometry relative="1" as="geometry"/>
                </mxCell>
                <mxCell id="510" value="&lt;font style=&quot;font-size: 24px;&quot;&gt;LNS&lt;br&gt;(ChirpStack)&lt;br&gt;[2]&lt;br&gt;&lt;/font&gt;" style="whiteSpace=wrap;html=1;aspect=fixed;" parent="1" vertex="1">
                    <mxGeometry x="2310" y="735" width="170" height="170" as="geometry"/>
                </mxCell>
                <mxCell id="514" value="&lt;font style=&quot;font-size: 24px;&quot;&gt;Georgios Papoutsas&lt;/font&gt;" style="rounded=1;whiteSpace=wrap;html=1;gradientDirection=west;fillColor=#6a00ff;fontColor=#ffffff;strokeColor=#3700CC;" vertex="1" parent="1">
                    <mxGeometry x="320" y="1200" width="240" height="140" as="geometry"/>
                </mxCell>
                <mxCell id="515" value="&lt;font style=&quot;font-size: 24px;&quot;&gt;Konstantinos Tsampras&lt;/font&gt;" style="rounded=1;whiteSpace=wrap;html=1;gradientDirection=west;fillColor=#e51400;fontColor=#ffffff;strokeColor=#B20000;" vertex="1" parent="1">
                    <mxGeometry x="325" y="1370" width="240" height="140" as="geometry"/>
                </mxCell>
            </root>
        </mxGraphModel>
    </diagram>
</mxfile>